PathFileType	4	(X/Y/Z)	C:\Users\willi\Desktop\Data_PaperCallum_v2\17_Akif\Gait03\marker_experimental_temp.trc
DataRate	CameraRate	NumFrames	NumMarkers	Units	OrigDataRate	OrigDataStartFrame	OrigNumFrames
100.000000	100.000000	7	27	mm	100.000000	138	158
Frame#	Time	C7			T10			Clav			Sternum			Right_Back			PCL_CRAN			PCL_RECHTS			PCL_LINKS			RCL_UL_CRAN			RCL_UL_POST			RCL_UL_ANT			RCL_LL_CRAN			RCL_LL_POST			RCL_LL_ANT			Right_Heel			Right_Toe			Right_M5			LCL_UL_CRAN			LCL_UL_POST			LCL_UL_ANT			LCL_LL_CRAN			LCL_LL_POST			LCL_LL_ANT			Left_Heel			Left_Toe			Left_M5			*26			
		X1	Y1	Z1	X2	Y2	Z2	X3	Y3	Z3	X4	Y4	Z4	X5	Y5	Z5	X6	Y6	Z6	X7	Y7	Z7	X8	Y8	Z8	X9	Y9	Z9	X10	Y10	Z10	X11	Y11	Z11	X12	Y12	Z12	X13	Y13	Z13	X14	Y14	Z14	X15	Y15	Z15	X16	Y16	Z16	X17	Y17	Z17	X18	Y18	Z18	X19	Y19	Z19	X20	Y20	Z20	X21	Y21	Z21	X22	Y22	Z22	X23	Y23	Z23	X24	Y24	Z24	X25	Y25	Z25	X26	Y26	Z26	X27	Y27	Z27	

139	1.38	-519.0367431640626	1398.840209960938	160.6079559326172	-484.9583435058594	1182.176025390625	163.2184295654297	-662.0977783203126	1328.850341796875	175.2873229980469	-723.2208251953126	1164.897094726563	188.7083892822266	-495.8743591308594	1337.243530273438	43.66830825805667	-495.2706604003907	1011.362670898438	166.4242553710938	-486.8583679199219	952.1719360351563	141.8569488525391	-487.4366149902344	950.742431640625	192.4514312744141	-585.1038208007813	717.5410766601563	4.724998950958287	-561.10888671875	657.9465942382813	13.17495250701908	-611.2603149414063	657.82373046875	7.142018795013465	-491.6364135742188	372.1299133300781	46.76402282714847	-457.6656799316406	316.1763916015625	45.58801269531253	-507.9704284667969	307.9774169921874	50.51770019531253	-380.3318481445313	33.86792755126951	138.5561676025391	-581.662841796875	28.25271034240719	129.3777770996094	-533.7970581054688	7.777622222900358	71.2957458496094	-666.3441162109375	753.2268676757813	349.1458435058594	-680.5435180664063	690.14599609375	345.7073059082032	-721.5032958984375	716.9221801757813	349.5512695312501	-737.2560424804688	389.7386169433593	328.5394897460938	-711.923095703125	330.3918457031249	321.6231689453126	-762.5677490234375	329.1867065429687	323.8157348632813	-668.5878295898438	45.51500701904293	217.4600982666016	-857.4609375	51.26331329345698	274.5890502929688	-806.9295043945313	25.09207725524897	316.1453552246094	nan	nan	nan	
140	1.39	-532.7835083007814	1396.8154296875	161.0433044433594	-498.1455688476563	1180.328125	164.0768585205078	-675.8721313476564	1326.438720703125	175.5706787109375	-736.6146850585939	1162.272216796875	188.340560913086	-509.5757141113282	1335.442993164063	43.87532806396487	-508.2478942871094	1009.090148925781	168.0327453613282	-499.5120239257813	949.9691162109375	143.4048919677735	-500.5986328125001	948.4078979492188	194.0117645263672	-594.1351318359375	716.1925659179688	4.744123935699499	-569.6612548828125	656.8057250976563	13.4541168212891	-619.7586059570313	656.2167358398438	6.879004478454628	-496.8174438476563	371.8272094726562	47.29691314697268	-461.8919372558594	316.374755859375	46.52444076538089	-512.1320190429688	307.4396972656249	51.03011322021487	-380.5412902832031	34.6150436401367	139.5711364746094	-581.6721801757813	28.19898414611813	129.3837280273438	-533.5528564453125	7.943408012390104	71.42890167236331	-680.017333984375	750.4085693359375	348.3616333007813	-694.4781494140625	687.4312133789063	344.2333374023438	-735.24609375	714.2379150390625	348.2448425292969	-757.0807495117188	385.6031799316406	326.5893249511719	-735.8001708984375	324.5900573730468	320.4111328125001	-786.4083251953125	326.7738037109374	322.4280395507813	-715.14404296875	36.29554367065425	218.9807128906251	-903.1552124023438	56.12520599365229	275.8444824218751	-854.7569580078125	26.02026557922358	317.4595031738282	-88.05532073974634	726.4660034179688	-3209.533935546875	
141	1.4	-546.6054687500001	1394.67724609375	161.5505676269532	-511.4361877441407	1178.364624023438	165.0328674316407	-689.7315063476564	1323.9248046875	175.9278259277344	-750.1049194335939	1159.570434570313	188.0895080566407	-523.3294677734376	1333.522094726563	44.18967819213871	-521.3760375976564	1006.703857421875	169.6668701171875	-512.3289794921876	947.6655883789063	144.9456634521485	-513.8972778320314	945.9420776367188	195.5628509521485	-603.3825073242188	714.8584594726563	4.72135257720951	-578.3660278320313	655.6995849609375	13.6620435714722	-628.4135131835938	654.6319580078125	6.611573696136513	-502.1599426269531	371.5860900878906	47.70484161376956	-466.1864318847656	316.7026062011718	47.25953674316409	-516.3516845703125	306.9865722656249	51.42993545532229	-380.7535095214844	35.57957458496092	140.386474609375	-581.6715087890625	28.14734268188473	129.3674774169922	-533.3076171875	8.086148262023894	71.5491638183594	-693.310791015625	747.1419677734375	347.6108093261719	-707.533203125	684.0914306640625	342.6728820800782	-748.267578125	710.7577514648438	346.9903259277344	-776.3935546875	381.6781616210937	324.6222839355469	-759.202880859375	319.2734985351562	319.1396179199219	-809.4725952148438	324.7990112304687	321.2154541015626	-761.3220825195313	29.23377609252925	220.9069824218751	-947.5955200195313	62.65101242065424	277.5220642089844	-901.5059204101563	28.91806983947748	319.1573181152344	nan	nan	nan	
142	1.41	-560.5003662109376	1392.45458984375	162.1309814453125	-524.8417358398439	1176.310302734375	166.0715484619141	-703.6732177734376	1321.34765625	176.3603210449219	-763.7009887695314	1156.835083007813	187.9573059082032	-537.1367797851564	1331.510131835938	44.61027908325199	-534.6713867187501	1004.24072265625	171.3026275634766	-525.3297119140626	945.2943115234375	146.4636840820313	-527.3488159179689	943.3859252929688	197.0891723632813	-612.8630981445313	713.5496826171875	4.664488315582313	-587.2333374023438	654.647216796875	13.79404735565189	-637.2338256835938	653.0746459960938	6.345204830169717	-507.6830749511719	371.4214172363281	47.9794731140137	-470.6119689941406	317.1712951660156	47.74776840209964	-520.674560546875	306.6297912597656	51.71454620361331	-380.9754333496094	36.80462646484373	140.9651489257813	-581.6676025390625	28.09781837463375	129.3258514404297	-533.07080078125	8.198061943054167	71.65167236328128	-706.3322143554688	743.5214233398438	346.9710998535157	-719.7724609375	680.2171020507813	341.2687377929688	-760.6729736328125	706.5690307617188	345.9138793945313	-795.2777709960938	378.0663757324218	322.6983947753907	-782.138671875	314.5595092773437	317.8628845214844	-831.8045654296875	323.3341369628906	320.1923522949219	-806.474365234375	24.34074020385737	223.0916290283204	-990.3160400390625	70.62558746337885	279.4809875488282	-946.6142578125	33.63625335693354	321.0784606933594	-88.05578613281274	726.4674072265625	-3209.54541015625	
143	1.42	-574.4654541015626	1390.175415039063	162.7859039306641	-538.3729858398439	1174.189575195313	167.1779327392578	-717.6950683593751	1318.745239257813	176.8686218261719	-777.4125366210939	1154.106811523438	187.9428405761719	-550.9984130859376	1329.435546875	45.13603591918949	-548.1482543945314	1001.737487792969	172.916976928711	-538.5319213867189	942.8875732421875	147.9453277587891	-540.9677124023439	940.7809448242188	198.5773315429688	-622.5982666015625	712.2718505859375	4.582465648651161	-596.2945556640625	653.6570434570313	13.85548210144047	-646.244873046875	651.54833984375	6.06716251373295	-513.4242553710938	371.3393249511718	48.11769485473636	-475.2514038085938	317.7787170410156	47.97893524169925	-525.1689453125	306.3725891113281	51.88310241699222	-381.2178344726563	38.32935714721678	141.2942199707032	-581.6663208007813	28.04904556274411	129.2600708007813	-532.8499145507813	8.276143074035613	71.73658752441409	-719.2237548828125	739.6696166992188	346.5078125000001	-731.363525390625	675.9559326171875	340.2669677734376	-772.6468505859375	701.8317260742188	345.1437683105469	-813.8353271484375	374.8496704101562	320.8875427246094	-804.6188354492188	310.5310974121093	316.6607360839844	-853.486572265625	322.4082946777343	319.3449707031251	-849.8613891601563	21.44319915771479	225.3453521728516	-1030.82421875	79.65797424316401	281.4483337402344	-989.5088500976563	39.81919097900384	322.9678649902344	-88.05603790283227	726.4682006835938	-3209.551513671875	
144	1.43	-588.4981079101564	1387.86669921875	163.5167694091797	-552.0397949218751	1172.025756835938	168.3375396728516	-731.7955932617189	1316.153076171875	177.4522857666016	-791.2492065429689	1151.423828125	188.0420989990235	-564.9144897460939	1327.325317382813	45.76589584350589	-561.8186645507814	999.2301025390625	174.4882354736328	-551.9505615234376	940.4766235351563	149.3790893554688	-554.7663574218751	938.1685791015625	200.0161590576172	-632.61328125	711.0258178710938	4.485702991485635	-605.5967407226563	652.7279663085938	13.86176395416263	-655.4860229492188	650.05517578125	5.758410453796427	-519.430419921875	371.3389587402343	48.120231628418	-480.1853637695313	318.5158996582031	47.97847366333011	-529.9073486328125	306.2125244140624	51.93551254272464	-381.4951171875	40.18885421752928	141.3845672607422	-581.6727294921875	27.99883270263668	129.1744842529297	-532.6497802734375	8.322115898132292	71.8085632324219	-732.1526489257813	735.72998046875	346.2665710449219	-742.5829467773438	671.5040283203125	339.8683471679688	-784.4452514648438	696.7734985351563	344.7847595214844	-832.1708374023438	372.0810852050781	319.2573852539063	-826.643798828125	307.2279357910156	315.6266479492188	-874.6182861328125	321.9975585937499	318.6394348144532	-890.6881103515625	20.18389129638667	227.4641113281251	-1068.615478515625	89.17908477783196	283.0468444824219	-1029.630737304688	46.91089630126947	324.5078125000001	-88.0563125610354	726.4690551757813	-3209.55810546875	
145	1.44	-602.5957031250001	1385.5537109375	164.3250427246094	-565.8510742187501	1169.841552734375	169.5368194580078	-745.9740600585939	1313.604370117188	178.1100158691407	-805.2201538085939	1148.820678710938	188.2486267089844	-578.8848876953126	1325.204467773438	46.49885559082035	-575.6924438476564	996.75341796875	175.9965362548828	-565.5978393554689	938.0911254882813	150.7556304931641	-568.7551269531251	935.5891723632813	201.3967742919922	-642.9373779296875	709.8084716796875	4.386113643646279	-615.1951293945313	651.85009765625	13.83463382720951	-665.007080078125	648.5951538085938	5.407711029052775	-525.7511596679688	371.4145202636718	47.9899826049805	-485.4767150878906	319.3725280761718	47.7961120605469	-534.951171875	306.1428833007812	51.87261199951175	-381.824951171875	42.41401672363279	141.2640838623047	-581.6907958984375	27.94481277465817	129.074462890625	-532.47265625	8.342083930969206	71.87469482421878	-745.2965698242188	731.8558349609375	346.2677307128907	-753.8031005859375	667.0877685546875	340.1769409179688	-796.3768310546875	691.673828125	344.8907775878907	-850.371826171875	369.7782897949218	317.8581542968751	-848.1863403320313	304.6392822265624	314.8483581542969	-895.2847290039063	322.0199890136718	318.0348510742188	-928.1586303710938	20.05394744873041	229.2688751220704	-1103.19921875	98.47322845458977	283.8582458496094	-1066.46142578125	54.1998329162597	325.3717651367188	-88.05659484863305	726.4699096679688	-3209.564697265625	
